<svg width="134" height="134" viewBox="0 0 134 134" fill="none" xmlns="http://www.w3.org/2000/svg">
<path d="M45.5811 25.6L27.8478 43.2V66.6667V90.1333L45.5811 107.733C61.8478 123.867 63.8478 125.333 68.2478 125.333C71.7145 125.333 73.4478 124.533 74.5145 122.8C76.5145 118.8 76.3811 11.7333 74.2478 9.6C73.3145 8.66666 70.5145 8 67.9811 8C63.8478 8 61.5811 9.86666 45.5811 25.6Z" fill="#3D90AB"/>
<path d="M7.8478 43.0667C4.51447 44.8 4.51447 44.8 4.11447 66.1333C3.71447 91.0667 3.71447 90.8 15.5811 91.7333L23.1811 92.2667V66.8V41.3333H17.1811C13.8478 41.3333 9.71447 42.1333 7.8478 43.0667Z" fill="#3D90AB"/>
<path d="M83.4478 48.9333C81.5811 50.8 82.6478 54.5333 85.1811 55.3333C89.8478 56.8 93.1811 61.4667 93.1811 66.6667C93.1811 71.8667 89.8478 76.5333 85.1811 78C82.1145 78.9333 81.5811 83.7333 84.3811 84.8C85.4478 85.2 88.1145 84.5333 90.5145 83.3333C102.514 77.0667 103.181 57.7333 91.4478 50.6667C86.9145 47.8667 84.9145 47.4667 83.4478 48.9333Z" fill="#3D90AB"/>
</svg>
